<?xml version="1.0" encoding="utf-8"?>
<!-- Generator: Adobe Illustrator 26.0.2, SVG Export Plug-In . SVG Version: 6.00 Build 0)  -->
<svg version="1.1" id="Laag_1" xmlns="http://www.w3.org/2000/svg" xmlns:xlink="http://www.w3.org/1999/xlink" x="0px" y="0px"
	 viewBox="0 0 675.35 220.49" style="enable-background:new 0 0 675.35 220.49;" xml:space="preserve">
<style type="text/css">
	.st0{fill:none;}
	.st1{fill:#278ACB;}
	.st2{fill:#EFEFEF;}
</style>
<g>
	<g>
		<polygon class="st0" points="134.89,112.44 161.91,112.44 165.92,112.44 169.93,112.44 196.95,112.44 196.95,83.65 169.93,83.65 
			165.92,83.65 161.91,83.65 134.89,83.65 		"/>
		<path class="st1" d="M62.74,116.09l45.67,46.53l1.77,1.81h47.58v-47.99h-31.03V79.64h31.03V67.61h-47.44L62.74,116.09z
			 M149.75,128.47v23.93h-34.51L79.6,116.09l35.11-35.77v48.16H149.75z"/>
		<path class="st2" d="M268.39,116.09l-47.58-48.48h-51.45v12.03h35.04v36.81h-35.04v47.99h51.59l1.77-1.81L268.39,116.09z
			 M215.89,152.4h-34.51v-23.93h35.04V80.32l35.11,35.77L215.89,152.4z"/>
	</g>
	<g>
		<path class="st2" d="M333.26,129.17c0,2.64-0.45,5.02-1.35,7.14c-0.9,2.12-2.22,3.92-3.97,5.42c-1.74,1.5-3.87,2.65-6.39,3.46
			c-2.52,0.81-5.41,1.21-8.68,1.21c-2.86,0-5.62-0.3-8.27-0.89c-2.66-0.59-5.12-1.48-7.38-2.67v-11.65c1.29,0.62,2.6,1.22,3.92,1.8
			c1.32,0.58,2.66,1.1,4.03,1.56c1.36,0.46,2.72,0.82,4.09,1.09c1.36,0.27,2.72,0.4,4.06,0.4c1.38,0,2.55-0.15,3.54-0.46
			c0.98-0.31,1.78-0.74,2.39-1.29c0.61-0.55,1.05-1.21,1.34-1.98c0.28-0.77,0.43-1.61,0.43-2.53c0-1.11-0.24-2.08-0.71-2.93
			c-0.47-0.85-1.13-1.64-1.98-2.39c-0.85-0.74-1.87-1.46-3.07-2.16c-1.2-0.7-2.54-1.44-4.03-2.22c-1.24-0.65-2.63-1.43-4.17-2.35
			c-1.54-0.92-2.99-2.05-4.35-3.42c-1.36-1.36-2.5-3.01-3.42-4.93c-0.92-1.93-1.38-4.24-1.38-6.94c0-2.64,0.44-5.01,1.32-7.1
			c0.88-2.09,2.12-3.85,3.74-5.3c1.62-1.44,3.58-2.54,5.88-3.3c2.31-0.76,9.18-1.2,12.04-1.13c5.09,0.12,8.53,0.27,12.37,0.85V96.8
			c-5.13-0.58-8.47-0.6-11.46-0.79c-5.74-0.38-9.06,0.79-9.96,1.72c-1.1,1.14-1.68,2.61-1.68,4.47c0,1,0.17,1.88,0.5,2.65
			c0.34,0.77,0.88,1.49,1.62,2.16s1.7,1.36,2.87,2.06c1.17,0.7,2.6,1.5,4.27,2.39c2.02,1.08,3.88,2.18,5.58,3.3
			c1.7,1.12,3.16,2.36,4.39,3.72c1.23,1.36,2.18,2.91,2.85,4.63C332.92,124.82,333.26,126.85,333.26,129.17z"/>
		<path class="st2" d="M369.59,145.59h-12.5v-48.7h-14.84V86.45h42.15v10.44h-14.8V145.59z"/>
		<path class="st2" d="M426.86,145.59H392.8V86.45h34.06v10.27h-21.52v12.98h20.02v10.27h-20.02v15.25h21.52V145.59z"/>
		<path class="st1" d="M450.91,145.59h-12.34V86.45h33.9v10.27h-21.56v15.25h20.06v10.23h-20.06V145.59z"/>
		<path class="st1" d="M515.09,145.59l-4.04-14.08h-20.39l-4.08,14.08h-12.66l19.21-59.38h15.33l19.29,59.38H515.09z M508.13,121
			l-3.8-12.94c-0.16-0.49-0.41-1.28-0.73-2.39c-0.32-1.11-0.67-2.33-1.03-3.66c-0.36-1.34-0.71-2.68-1.03-4.03
			c-0.32-1.35-0.55-2.49-0.69-3.44c-0.11,0.59-0.25,1.29-0.43,2.1c-0.17,0.81-0.38,1.66-0.61,2.57c-0.23,0.9-0.46,1.81-0.71,2.73
			c-0.24,0.92-0.47,1.78-0.69,2.59c-0.21,0.81-0.41,1.52-0.59,2.14c-0.17,0.62-0.3,1.08-0.38,1.38L493.69,121H508.13z"/>
		<path class="st1" d="M585.33,145.59h-15.89l-23.26-44.74h-0.36c0.16,2.08,0.3,4.14,0.4,6.19c0.11,1.75,0.2,3.6,0.26,5.52
			c0.07,1.93,0.1,3.66,0.1,5.2v27.83h-11.21V86.45h15.81l23.22,44.29h0.24c-0.08-2.05-0.17-4.07-0.28-6.07
			c-0.03-0.86-0.06-1.74-0.1-2.65c-0.04-0.9-0.07-1.81-0.1-2.71c-0.03-0.9-0.05-1.77-0.06-2.61c-0.01-0.84-0.02-1.59-0.02-2.27
			V86.45h11.24V145.59z"/>
	</g>
</g>
</svg>
